<svg xmlns="http://www.w3.org/2000/svg" viewBox="0 0 80 80">
  <defs>
    <linearGradient id="naxGradient" gradientTransform="rotate(90)">
      <stop offset="24%" stop-color="#d81939"/>
      <stop offset="24%" stop-color="#f1f1f1"/>
      <stop offset="25%" stop-color="#f1f1f1"/>
      <stop offset="25%" stop-color="#002a3a"/>
      <stop offset="27%" stop-color="#002a3a"/>
      <stop offset="27%" stop-color="#f1f1f1"/>
    </linearGradient>
  </defs>
  <path fill="url(#naxGradient)" stroke="#002a3a" stroke-width="1.5" d="M40 9.9l.3.1.8 1.2.9 3.1.6 3.1.5 5.2v9.1l2.9 2.4-.1-1v-1.5l.1-1.2.2-.4h2.7l.2.4.1 1.2v1.5l-.3 2.3h-.4l-.1.3 1.8 1L66.1 45l.9.8.5 1.2v1.9l-.4-.9-.7-.9L55 43.5l-.1.8-.3.7-.3-.7-.1-1-4.2-1-.1.8-.3.7-.3-.7-.1-1-1.2-.2h-.6l-.1.9-.3.7-.3-.7-.1-.9h-3.5v11.6l-.1 2.7-.3 2.5-.7 2.4 9.1 7v2l-10.7-3.2-.3 1h-.2l-.3-1-10.7 3.2v-2l9.2-7-.7-2.4-.4-2.5-.1-2.7V41.9h-3.5l-.1.9-.3.7-.3-.7-.1-.9H32l-1.2.2-.1 1-.3.7-.3-.7-.1-.8-4.2 1-.1 1-.3.7-.3-.7-.1-.8-11.4 3.6-.7.9-.4.9V47l.5-1.2.9-.8 15.9-8.3 1.8-1-.1-.3H31l-.2-2.3v-1.5l.1-1.2.2-.4h2.7l.2.4.1 1.2v1.5l-.1 1 2.9-2.4v-9.1l.5-5.2.6-3.1 1-3.1.7-1.2z"/>
</svg>
