<svg xmlns="http://www.w3.org/2000/svg" viewBox="0 0 64 64">
  <defs>
    <linearGradient id="naxGradient" gradientTransform="rotate(90)">
      <stop offset="20%" stop-color="#d81939"/>
      <stop offset="20%" stop-color="#f1f1f1"/>
      <stop offset="21%" stop-color="#f1f1f1"/>
      <stop offset="21%" stop-color="#002a3a"/>
      <stop offset="23%" stop-color="#002a3a"/>
      <stop offset="23%" stop-color="#f1f1f1"/>
    </linearGradient>
  </defs>
  <path fill="url(#naxGradient)" stroke="#002a3a" stroke-width="1.5" d="M32 .2h.1l.4.3.7 1 .8 1.9.6 2.5.2 2.5.1 2.7v11.4l6.5 4.6-.3-.8-.2.3-.2-.3-.2.1-.1-.3-.2-.9-.1-1.3v-1.6l.1-1.2.1-.4.2-.2h3.2l.2.2.1.4.2 1.2v1.6l-.1 1.3-.4 1.4-.1-.3-.1.3-.1-.3-.2.3-.2-.3-.4 1.6 17.5 12.2.6.6.4.6 1.2 2v1l-1.6-1.4-.7-.5-.9-.5-7.5-3.2-.1.8-.2.3-.3-.6-.1-.8-3.8-1.6-.1.8-.2.3-.3-.7-.1-.7-3.2-1.4h-2l-.1.7-.2.4-.2-.4-.1-.7h-5.7v13l-.1 1.8-.1 1.6-.5 3.3v.4l.2.4 7 6.4.2.3.1.3.4 1.3-9.2-3.4-.7 2.9h-.4l-.7-2.9-9.2 3.4.4-1.3.1-.3.2-.3 7-6.4.2-.4v-.4l-.5-3.3-.1-1.7-.1-1.7v-13h-5.7l-.1.7-.2.5-.2-.5-.1-.7h-2l-3.3 1.4-.1.6-.3.6-.2-.3-.1-.7-3.6 1.7-.1.6-.3.6-.2-.3-.1-.6-7.6 3.2-.9.5-.7.5-1.6 1.4v-1l1.2-2 .4-.6.6-.6 17.5-12.2-.4-1.6-.2.3-.2-.3-.1.3-.1-.3-.1.3-.3-1.4-.1-1.3v-1.6l.1-1.2.1-.4.2-.2h3.2l.2.2.1.4.1 1.2v1.6l-.1 1.3-.2.9-.1.3-.2-.1-.2.3-.2-.3-.3.8 6.5-4.6V11.1l.1-2.7.2-2.5.6-2.5.8-1.9.7-1 .4-.3z"/>
</svg>
